<svg width="320" height="379" viewBox="0 0 320 379" fill="none" xmlns="http://www.w3.org/2000/svg">
<path d="M227.05 71.6928C245.22 89.5037 257.112 114.354 276.203 150.073C295.383 185.791 321.831 232.374 311.801 260.145C301.771 287.916 255.085 296.868 211.003 315.08C166.922 333.291 125.42 360.657 87.2418 355.323C49.0636 349.988 14.2085 311.961 5.44229 269.903C-3.41281 227.744 13.7401 181.562 26.0961 139.504C38.3632 97.4509 45.8333 59.5032 67.3189 42.3223C88.8045 25.1415 124.314 28.8332 154.38 35.9742C184.442 43.2034 208.879 53.8864 227.05 71.6928Z" fill="#FF8904"/>
<path d="M229.728 362.75H220.402V368.98H229.728V362.75Z" fill="#E49D75"/>
<path d="M275.729 351.236L268.921 356.739L273.794 362.775L280.602 357.272L275.729 351.236Z" fill="#E49D75"/>
<path d="M238.818 239.804C240.085 242.711 249.799 301.061 251.227 306.581C252.654 312.101 275.491 348.084 277.046 350.236C277.523 353.346 270.469 358.608 267.124 358.608C263.779 355.963 224.711 299.316 223.773 296.801C222.835 294.286 219.689 234.106 238.818 239.804Z" fill="#5FC5D1"/>
<path d="M198.03 230.138C197.586 232.547 204.188 287.617 205.007 295.013C205.827 302.409 218.476 361.994 219.596 363.481C220.715 364.969 229.23 364.648 230.7 363.904C232.17 363.16 227.828 301.775 227.828 297.325C227.828 292.875 239.231 251.828 237.766 239.939C236.3 228.05 198.03 230.138 198.03 230.138Z" fill="#6BD5E1"/>
<path d="M230.4 163.381H221.484V178.909H230.4V163.381Z" fill="#E49D75"/>
<path d="M224.791 165.934C231.555 165.934 237.039 158.554 237.039 149.451C237.039 140.348 231.555 132.968 224.791 132.968C218.026 132.968 212.542 140.348 212.542 149.451C212.542 158.554 218.026 165.934 224.791 165.934Z" fill="#E49D75"/>
<path d="M223.122 175.71C208.272 175.71 195.035 216.934 197.578 230.615C198.33 234.656 233.867 242.808 239.299 241.667C241.229 239.038 249.106 175.71 223.122 175.71Z" fill="#FFD98E"/>
<path d="M215.197 179.752C207.026 180.608 204.535 206.177 206.485 207.766C210.076 210.694 224.312 208.786 225.843 205.415C226.651 203.636 223.518 178.881 215.197 179.752Z" fill="#FFE4AD"/>
<path d="M213.754 139.126C213.754 144.827 217.775 148.344 224.149 150.305C224.149 158.107 225.353 158.449 225.353 163.2C225.353 173.436 223.608 168.318 223.608 185.993C223.608 196.652 228.068 202.45 236.279 202.45C246.209 202.45 251.907 191.939 251.907 186.276C251.907 179.091 244.802 166.606 244.304 156.239C243.616 142.291 239.282 130.622 228.415 130.622C219.131 130.622 213.754 134.08 213.754 139.126Z" fill="black"/>
<path d="M224.778 154.937C226.598 154.937 228.073 153.461 228.073 151.64C228.073 149.82 226.598 148.344 224.778 148.344C222.959 148.344 221.484 149.82 221.484 151.64C221.484 153.461 222.959 154.937 224.778 154.937Z" fill="#E49D75"/>
<path fill-rule="evenodd" clip-rule="evenodd" d="M280.585 356.06L285.865 363.27L274.82 378.908L264.396 378.975L264.531 373.688L268.717 371.837L272.438 362.649L280.585 356.06Z" fill="black"/>
<path d="M230.353 368.46V378.988H199.428V374.326L219.832 368.46H230.353Z" fill="black"/>
<path d="M66 189.668C66 157.982 75.2995 133 107.739 133C140.018 133 149 157.982 149 189.668C149 221.189 140.04 246 107.739 246C75.2995 246 66 221.189 66 189.668ZM123.494 189.668C123.494 170.556 119.771 155.803 107.767 155.803C95.5904 155.803 91.3664 170.556 91.3664 189.668C91.3664 208.609 95.5904 223.031 107.767 223.031C119.771 223.054 123.494 208.609 123.494 189.668Z" fill="#D3D3D3"/>
<path d="M223.057 205.149C223.533 207.908 220.882 217.241 220.058 219.649C219.233 222.057 202.941 255.271 201.829 257.197C200.718 259.122 200.474 265.457 198.8 268.356C197.127 271.255 191.909 273.484 190.38 272.669C189.435 270.606 191.065 262.646 191.946 260.885C189.273 264.222 186.138 263.535 185.414 263.117C184.69 262.698 188.05 257.098 193.247 255.023C194.755 252.166 207.194 222.419 207.546 220.484C207.897 218.549 208.006 206.588 208.557 205.667C209.109 204.746 223.057 205.149 223.057 205.149Z" fill="#E49D75"/>
<path d="M147 94.357H129.436V115H103.686V94.357H51V86.5609L111.873 4H129.436V72.3608H147V94.357ZM103.686 72.3608V46.6392L85.2745 72.3608H103.686Z" fill="#D3D3D3"/>
<path d="M149 353.357H131.436V374H105.686V353.357H53V345.561L113.873 263H131.436V331.361H149V353.357ZM105.686 331.361V305.639L87.2745 331.361H105.686Z" fill="#D3D3D3"/>
</svg>
