<svg width="543" height="466" viewBox="0 0 543 466" fill="none" xmlns="http://www.w3.org/2000/svg">
<g clip-path="url(#clip0_25_7)">
<rect width="52" height="240" rx="26" transform="matrix(-0.702223 -0.711957 -0.711957 0.702223 308.385 37.0217)" fill="#FFDD00"/>
<rect x="-0.70709" y="-0.00486729" width="51" height="239" rx="25.5" transform="matrix(-0.702223 -0.711957 -0.711957 0.702223 307.178 36.5169)" stroke="black" stroke-opacity="0.5"/>
<g filter="url(#filter0_d_25_7)">
<rect x="235" y="37.0217" width="52" height="240" rx="26" transform="rotate(-45.3944 235 37.0217)" fill="#DBBF05"/>
<rect x="235.707" y="37.0169" width="51" height="239" rx="25.5" transform="rotate(-45.3944 235.707 37.0169)" stroke="black" stroke-opacity="0.5"/>
</g>
<g filter="url(#filter1_d_25_7)">
<mask id="path-5-inside-1_25_7" fill="white">
<path d="M465.148 466H79.2852L40 231H504.433L465.148 466Z"/>
</mask>
<path d="M465.148 466H79.2852L40 231H504.433L465.148 466Z" fill="#FFAF40"/>
<path d="M465.148 466V467H465.995L466.135 466.165L465.148 466ZM79.2852 466L78.2988 466.165L78.4385 467H79.2852V466ZM40 231V230H38.819L39.0137 231.165L40 231ZM504.433 231L505.419 231.165L505.614 230H504.433V231ZM465.148 466V465H79.2852V466V467H465.148V466ZM79.2852 466L80.2715 465.835L40.9863 230.835L40 231L39.0137 231.165L78.2988 466.165L79.2852 466ZM40 231V232H504.433V231V230H40V231ZM504.433 231L503.446 230.835L464.162 465.835L465.148 466L466.135 466.165L505.419 231.165L504.433 231Z" fill="black" fill-opacity="0.5" mask="url(#path-5-inside-1_25_7)"/>
</g>
<g filter="url(#filter2_d_25_7)">
<rect y="154" width="543" height="78" rx="29" fill="#FF9500"/>
<rect x="0.5" y="154.5" width="542" height="77" rx="28.5" stroke="black" stroke-opacity="0.5"/>
</g>
<g filter="url(#filter3_d_25_7)">
<rect x="192" y="264" width="25" height="155" rx="12.5" fill="white"/>
</g>
<g filter="url(#filter4_d_25_7)">
<rect x="259" y="264" width="25" height="155" rx="12.5" fill="white"/>
</g>
<g filter="url(#filter5_d_25_7)">
<rect x="326" y="264" width="25" height="155" rx="12.5" fill="white"/>
</g>
</g>
<defs>
<filter id="filter0_d_25_7" x="241.769" y="6.76868" width="193.848" height="192.018" filterUnits="userSpaceOnUse" color-interpolation-filters="sRGB">
<feFlood flood-opacity="0" result="BackgroundImageFix"/>
<feColorMatrix in="SourceAlpha" type="matrix" values="0 0 0 0 0 0 0 0 0 0 0 0 0 0 0 0 0 0 127 0" result="hardAlpha"/>
<feOffset/>
<feGaussianBlur stdDeviation="2"/>
<feComposite in2="hardAlpha" operator="out"/>
<feColorMatrix type="matrix" values="0 0 0 0 0 0 0 0 0 0 0 0 0 0 0 0 0 0 0.25 0"/>
<feBlend mode="normal" in2="BackgroundImageFix" result="effect1_dropShadow_25_7"/>
<feBlend mode="normal" in="SourceGraphic" in2="effect1_dropShadow_25_7" result="shape"/>
</filter>
<filter id="filter1_d_25_7" x="36" y="231" width="472.433" height="243" filterUnits="userSpaceOnUse" color-interpolation-filters="sRGB">
<feFlood flood-opacity="0" result="BackgroundImageFix"/>
<feColorMatrix in="SourceAlpha" type="matrix" values="0 0 0 0 0 0 0 0 0 0 0 0 0 0 0 0 0 0 127 0" result="hardAlpha"/>
<feOffset dy="4"/>
<feGaussianBlur stdDeviation="2"/>
<feComposite in2="hardAlpha" operator="out"/>
<feColorMatrix type="matrix" values="0 0 0 0 0 0 0 0 0 0 0 0 0 0 0 0 0 0 0.25 0"/>
<feBlend mode="normal" in2="BackgroundImageFix" result="effect1_dropShadow_25_7"/>
<feBlend mode="normal" in="SourceGraphic" in2="effect1_dropShadow_25_7" result="shape"/>
</filter>
<filter id="filter2_d_25_7" x="-10" y="148" width="563" height="98" filterUnits="userSpaceOnUse" color-interpolation-filters="sRGB">
<feFlood flood-opacity="0" result="BackgroundImageFix"/>
<feColorMatrix in="SourceAlpha" type="matrix" values="0 0 0 0 0 0 0 0 0 0 0 0 0 0 0 0 0 0 127 0" result="hardAlpha"/>
<feOffset dy="4"/>
<feGaussianBlur stdDeviation="5"/>
<feComposite in2="hardAlpha" operator="out"/>
<feColorMatrix type="matrix" values="0 0 0 0 0 0 0 0 0 0 0 0 0 0 0 0 0 0 0.25 0"/>
<feBlend mode="normal" in2="BackgroundImageFix" result="effect1_dropShadow_25_7"/>
<feBlend mode="normal" in="SourceGraphic" in2="effect1_dropShadow_25_7" result="shape"/>
</filter>
<filter id="filter3_d_25_7" x="192" y="260" width="33" height="163" filterUnits="userSpaceOnUse" color-interpolation-filters="sRGB">
<feFlood flood-opacity="0" result="BackgroundImageFix"/>
<feColorMatrix in="SourceAlpha" type="matrix" values="0 0 0 0 0 0 0 0 0 0 0 0 0 0 0 0 0 0 127 0" result="hardAlpha"/>
<feOffset dx="4"/>
<feGaussianBlur stdDeviation="2"/>
<feComposite in2="hardAlpha" operator="out"/>
<feColorMatrix type="matrix" values="0 0 0 0 0 0 0 0 0 0 0 0 0 0 0 0 0 0 0.25 0"/>
<feBlend mode="normal" in2="BackgroundImageFix" result="effect1_dropShadow_25_7"/>
<feBlend mode="normal" in="SourceGraphic" in2="effect1_dropShadow_25_7" result="shape"/>
</filter>
<filter id="filter4_d_25_7" x="259" y="260" width="33" height="163" filterUnits="userSpaceOnUse" color-interpolation-filters="sRGB">
<feFlood flood-opacity="0" result="BackgroundImageFix"/>
<feColorMatrix in="SourceAlpha" type="matrix" values="0 0 0 0 0 0 0 0 0 0 0 0 0 0 0 0 0 0 127 0" result="hardAlpha"/>
<feOffset dx="4"/>
<feGaussianBlur stdDeviation="2"/>
<feComposite in2="hardAlpha" operator="out"/>
<feColorMatrix type="matrix" values="0 0 0 0 0 0 0 0 0 0 0 0 0 0 0 0 0 0 0.25 0"/>
<feBlend mode="normal" in2="BackgroundImageFix" result="effect1_dropShadow_25_7"/>
<feBlend mode="normal" in="SourceGraphic" in2="effect1_dropShadow_25_7" result="shape"/>
</filter>
<filter id="filter5_d_25_7" x="326" y="260" width="33" height="163" filterUnits="userSpaceOnUse" color-interpolation-filters="sRGB">
<feFlood flood-opacity="0" result="BackgroundImageFix"/>
<feColorMatrix in="SourceAlpha" type="matrix" values="0 0 0 0 0 0 0 0 0 0 0 0 0 0 0 0 0 0 127 0" result="hardAlpha"/>
<feOffset dx="4"/>
<feGaussianBlur stdDeviation="2"/>
<feComposite in2="hardAlpha" operator="out"/>
<feColorMatrix type="matrix" values="0 0 0 0 0 0 0 0 0 0 0 0 0 0 0 0 0 0 0.25 0"/>
<feBlend mode="normal" in2="BackgroundImageFix" result="effect1_dropShadow_25_7"/>
<feBlend mode="normal" in="SourceGraphic" in2="effect1_dropShadow_25_7" result="shape"/>
</filter>
<clipPath id="clip0_25_7">
<rect width="543" height="466" fill="white"/>
</clipPath>
</defs>
</svg>
