<svg width="118" height="118" viewBox="0 0 118 118" fill="none" xmlns="http://www.w3.org/2000/svg">
<path d="M12.2917 59C12.2917 36.9815 12.2917 25.9722 19.132 19.1319C25.9723 12.2917 36.9816 12.2917 59.0001 12.2917C81.0184 12.2917 92.0278 12.2917 98.8683 19.1319C105.708 25.9722 105.708 36.9815 105.708 59C105.708 81.0183 105.708 92.0277 98.8683 98.8683C92.0278 105.708 81.0184 105.708 59.0001 105.708C36.9816 105.708 25.9723 105.708 19.132 98.8683C12.2917 92.0277 12.2917 81.0183 12.2917 59Z" stroke="#FFC31D" stroke-width="8.5"/>
<path d="M36.875 83.5833C48.3392 71.5759 69.5374 71.0104 81.125 83.5833M71.2676 46.7083C71.2676 53.4968 65.7565 59 58.9582 59C52.1604 59 46.6492 53.4968 46.6492 46.7083C46.6492 39.9198 52.1604 34.4167 58.9582 34.4167C65.7565 34.4167 71.2676 39.9198 71.2676 46.7083Z" stroke="#FFC31D" stroke-width="8.5" stroke-linecap="round"/>
</svg>
