<svg width="154" height="208" viewBox="0 0 154 208" fill="none" xmlns="http://www.w3.org/2000/svg">
<g clip-path="url(#clip0_26_112)">
<rect x="56" y="163" width="43" height="18" fill="#ED7877"/>
<rect x="38" y="65" width="78" height="110" rx="39" fill="#E88F87"/>
<rect x="52" y="181" width="51" height="27" fill="#0B243E"/>
<circle cx="77" cy="189" r="3" fill="white"/>
<circle cx="77" cy="198" r="3" fill="white"/>
<path d="M38.9854 93.6836V107.335C35.245 109.24 30.9317 110.058 26.4932 109.443C14.7315 107.814 6.54828 96.7364 8.21582 84.7012C8.54737 82.3083 9.24441 80.0575 10.2393 78L38.9854 93.6836Z" fill="#465A71"/>
<path d="M38.2061 126.766C34.6569 128.141 30.7749 128.9 26.7061 128.9C15.2081 128.9 5.1974 122.85 0 113.916L38.2061 98.001V126.766Z" fill="#173241"/>
<path d="M24.412 121.541C21.9753 126.257 23.8736 132.082 28.6521 134.551C33.4306 137.019 36.4831 135.742 39.6082 132.274C36.7511 119.48 40.8393 119.622 37.4762 117.47C32.6977 115.001 26.8487 116.824 24.412 121.541Z" fill="#E38C86"/>
<path d="M30.7093 117.391C27.9551 117.831 25.4864 119.46 24.1545 122.038C21.8613 126.478 23.8049 132.041 28.4959 134.465C32.0834 136.318 36.2368 135.796 39.0191 133.463C37.0308 133.781 34.8939 133.482 32.9271 132.466C28.2359 130.043 26.2924 124.479 28.5857 120.04C29.1254 118.995 29.8532 118.108 30.7093 117.391Z" fill="#EB777A"/>
<path d="M36.8741 124.876C29.4799 119.794 25.1188 110.144 26.4296 99.7495C27.7403 89.3543 34.3602 81.0886 42.7846 78.0016L36.8741 124.876Z" fill="#0E243B"/>
<rect x="39" y="50" width="78" height="110" rx="39" fill="#E5A99D"/>
<circle cx="55" cy="116" r="19" fill="white"/>
<path d="M44.6539 44.2204C48.6307 44.6538 52.3278 45.9417 55.6185 47.9007L34.417 109.313C19.7459 105.97 9.68301 90.7592 11.5307 73.8057C13.5054 55.6877 28.3351 42.4419 44.6539 44.2204Z" fill="#0E243B"/>
<path d="M61.9346 16C79.1514 20.5501 91.8164 35.8944 91.8164 54.126C91.8164 58.6338 91.0401 62.9645 89.6143 67H48L61.9346 16Z" fill="#0E243B"/>
<path d="M107 0C113.685 0 119.986 1.68329 125.524 4.65527L93.667 79.6631C78.1316 74.0344 67 58.8513 67 41C67 18.3563 84.9086 0 107 0Z" fill="#173241"/>
<path d="M143.696 55C145.768 59.8136 147 65.8184 147 72.3311C147 88.1643 139.731 101 130.764 101C124.961 101 119.871 95.6257 117 87.543L143.696 55Z" fill="#173241"/>
<path d="M153.515 111.602C147.683 120.035 137.761 125.587 126.5 125.587C123.195 125.587 120.005 125.107 117 124.218V95L153.515 111.602Z" fill="#173241"/>
<path d="M129.716 120.541C132.153 125.257 130.255 131.082 125.476 133.551C120.698 136.019 117.645 134.742 114.52 131.274C117.377 118.48 113.289 118.622 116.652 116.47C121.431 114.001 127.28 115.824 129.716 120.541Z" fill="#E38C86"/>
<path d="M123.419 116.391C126.173 116.831 128.642 118.46 129.974 121.038C132.267 125.478 130.324 131.041 125.633 133.465C122.045 135.318 117.892 134.796 115.109 132.463C117.098 132.781 119.235 132.482 121.201 131.466C125.893 129.043 127.836 123.479 125.543 119.04C125.003 117.995 124.275 117.108 123.419 116.391Z" fill="#EB777A"/>
<circle cx="97.5" cy="115.5" r="19.5" fill="white"/>
<circle cx="54.5" cy="116.5" r="15.5" fill="#CC00FF"/>
<mask id="mask0_26_112" style="mask-type:alpha" maskUnits="userSpaceOnUse" x="39" y="101" width="31" height="31">
<circle cx="54.5" cy="116.5" r="15.5" fill="#CC00FF"/>
</mask>
<g mask="url(#mask0_26_112)">
<path d="M34 96.701L39.7886 92L70.6788 130.037L64.8902 134.738L34 96.701Z" fill="#F0B2EA"/>
<rect x="22" y="103.565" width="12" height="49" transform="rotate(-39.0805 22 103.565)" fill="#F0B2EA"/>
</g>
<circle cx="97.5" cy="116.5" r="15.5" fill="#CC00FF"/>
<mask id="mask1_26_112" style="mask-type:alpha" maskUnits="userSpaceOnUse" x="82" y="101" width="31" height="31">
<circle cx="97.5" cy="116.5" r="15.5" fill="#CC00FF"/>
</mask>
<g mask="url(#mask1_26_112)">
<path d="M77 96.701L82.7886 92L113.679 130.037L107.89 134.738L77 96.701Z" fill="#F0B2EA"/>
<rect x="65" y="103.565" width="12" height="49" transform="rotate(-39.0805 65 103.565)" fill="#F0B2EA"/>
</g>
<rect x="73" y="114" width="6" height="5" fill="white"/>
<path d="M79.0029 122C81.5905 129.735 88.8943 135.31 97.5 135.31C105.048 135.31 111.594 131.02 114.835 124.746C113.646 133.535 106.115 140.31 97 140.31C87.0589 140.31 79 132.251 79 122.31C79 122.206 79.0012 122.103 79.0029 122Z" fill="#E68E86"/>
<path d="M73.3811 121.308C70.5911 129.446 63.0927 135.19 54.4101 135C46.7945 134.834 40.2906 130.145 37.1659 123.427C38.1627 132.764 45.603 140.108 54.7989 140.309C64.8288 140.528 73.1464 132.168 73.3769 121.636C73.3793 121.526 73.3805 121.417 73.3811 121.308Z" fill="#E68E86"/>
<path d="M95.9912 140C95.9969 140.166 96 140.333 96 140.5C96 149.613 87.4934 157 77 157C66.5066 157 58 149.613 58 140.5C58 140.333 58.0031 140.166 58.0088 140H95.9912Z" fill="white"/>
<path d="M117.158 123.139C125.127 118.933 130.589 109.843 130.472 99.3662C130.354 88.8892 124.689 79.9234 116.627 75.8972L117.158 123.139Z" fill="#0E243B"/>
<path d="M91 41.1255C106.527 34.7729 124.817 42.0596 132.604 58.0641C140.391 74.0685 134.836 92.956 120.255 101.252L91 41.1255Z" fill="#0E243B"/>
<path d="M71.2598 79.79C68.0018 80.7157 64.5599 81.2139 61 81.2139C40.5655 81.2139 24 64.8723 24 44.7139C24 27.1488 36.5778 12.483 53.333 9L71.2598 79.79Z" fill="#173241"/>
<path d="M78.0838 77.165C74.2163 79.3541 69.687 80.4749 64.9215 80.1486C51.9731 79.2617 42.1953 68.046 43.0822 55.0977C43.7947 44.6944 51.175 36.3388 60.7643 33.9156L78.0838 77.165Z" fill="#465A71"/>
<path d="M100.621 10C114.839 14.385 125.201 27.951 125.201 44.0088C125.201 63.6149 109.755 79.5088 90.7012 79.5088C86.216 79.5088 81.9309 78.6279 78 77.0254L100.621 10Z" fill="#465A71"/>
<path d="M86 44C89.1021 44 92.0101 44.8555 94.5137 46.3496L80.6748 78.1221C73.8946 75.8215 69 69.2501 69 61.5C69 51.835 76.6112 44 86 44Z" fill="#5B7588"/>
</g>
<defs>
<clipPath id="clip0_26_112">
<rect width="154" height="208" fill="white"/>
</clipPath>
</defs>
</svg>
